<svg width="350px" height="54.403px" enable-background="new -0.333 -0.46 349.999 54.403" version="1.1" viewBox="-0.333 -0.46 349.999 54.403" xml:space="preserve" xmlns="http://www.w3.org/2000/svg"><style type="text/css">.st0{fill:#000;}</style><path class="st0" d="m41.135 34.799l9.166 5.248c-4.583 8.428-13.526 13.896-23.653 13.896-14.784 0-26.98-11.31-26.98-27.201 0-15.893 12.196-27.202 26.98-27.202 10.127 0 19.07 5.47 23.653 13.896l-9.166 5.248c-2.66-5.47-8.057-8.796-14.487-8.796-9.24 0-16.263 6.875-16.263 16.854s7.022 16.854 16.263 16.854c6.43 0 11.826-3.328 14.487-8.797z"/><path class="st0" d="M99.456,52.613V30.438H73.584v22.174H63.236V0.87h10.348v19.219h25.872V0.87h10.349v51.743H99.456z"/><path class="st0" d="m180.03 52.613h-11.311l-5.1-11.827h-27.054l-5.101 11.827h-11.31l22.917-51.743h14.045l22.914 51.743zm-20.549-21.435l-9.389-21.807-9.388 21.807h18.777z"/><path class="st0" d="M227.703,52.613l-27.72-40.729v40.729h-9.609V0.87h13.675l23.284,34.298V0.87h9.61v51.743H227.703z"/><path class="st0" d="m256.9 52.613v-51.743h36.959v9.61h-27.351v11.088h23.654v9.61h-23.654v11.826h28.829v9.609h-38.437z"/><path class="st0" d="M311.969,52.613V0.87h10.348v41.396h27.35v10.348H311.969z"/></svg>