<svg xmlns="http://www.w3.org/2000/svg" width="17" height="17"><path fill="#0A0A0A" d="M15.954 5.412c-.035-.799-.161-1.344-.348-1.821a3.679 3.679 0 0 0-.864-1.327 3.663 3.663 0 0 0-1.329-.865c-.476-.186-1.021-.312-1.819-.349-.799-.037-1.056-.044-3.091-.044-2.036 0-2.291.008-3.09.044s-1.345.163-1.822.349c-.492.191-.91.449-1.327.865s-.674.835-.865 1.327c-.186.477-.312 1.022-.349 1.821s-.044 1.056-.044 3.09c0 2.036.008 2.292.044 3.091.037.798.163 1.344.349 1.819.191.494.448.912.865 1.329.417.416.834.672 1.327.864.477.187 1.021.312 1.821.35.799.037 1.054.045 3.09.045 2.036 0 2.292-.008 3.091-.044.798-.037 1.344-.163 1.819-.35a3.686 3.686 0 0 0 1.329-.864c.416-.417.672-.835.864-1.329.187-.476.312-1.021.348-1.819.038-.799.047-1.056.047-3.092 0-2.034-.009-2.291-.046-3.09zm-1.348 6.121c-.034.73-.156 1.127-.26 1.392-.136.35-.298.6-.56.862a2.309 2.309 0 0 1-.863.56c-.264.104-.66.226-1.391.26-.792.034-1.028.042-3.031.042-2.001 0-2.239-.008-3.029-.042-.73-.034-1.127-.156-1.393-.26a2.302 2.302 0 0 1-.861-.56 2.355 2.355 0 0 1-.562-.862c-.1-.265-.222-.661-.256-1.392-.037-.792-.042-1.028-.042-3.031 0-2.001.006-2.238.042-3.029.034-.73.156-1.127.258-1.393a2.33 2.33 0 0 1 .562-.861c.262-.263.512-.426.861-.562.265-.101.662-.223 1.392-.257.79-.035 1.028-.044 3.029-.044 2.002 0 2.239.009 3.031.044.73.034 1.127.156 1.391.258.351.136.601.299.863.562.262.262.424.512.56.861.104.266.226.662.26 1.393.034.792.042 1.028.042 3.029-.001 2.002-.008 2.238-.043 3.03zm-6.104-6.88a3.85 3.85 0 1 0 0 7.701 3.85 3.85 0 1 0 0-7.701zm0 6.349a2.5 2.5 0 1 1 0-4.999 2.5 2.5 0 0 1 0 4.999zm4.002-7.4a.898.898 0 1 0 .002 1.796.898.898 0 0 0-.002-1.796z"/></svg>