<svg width="17" height="17" viewBox="0 0 17 17" xmlns="http://www.w3.org/2000/svg"><title>Slice 1</title><path d="M16.976 3.547c-.588.26-1.22.437-1.882.516.677-.405 1.195-1.048 1.44-1.812-.634.376-1.335.65-2.082.797-.598-.638-1.448-1.035-2.392-1.035-1.81 0-3.277 1.467-3.277 3.276 0 .257.03.507.085.747-2.724-.137-5.14-1.442-6.755-3.425-.282.484-.443 1.047-.443 1.648 0 1.137.58 2.14 1.457 2.727-.537-.018-1.042-.166-1.484-.41v.04c0 1.587 1.13 2.912 2.628 3.213-.273.074-.563.115-.862.115-.212 0-.416-.02-.617-.06.418 1.302 1.628 2.25 3.062 2.275-1.12.88-2.535 1.4-4.07 1.4-.265 0-.525-.015-.782-.044 1.45.93 3.173 1.475 5.024 1.475 6.028 0 9.324-4.995 9.324-9.326l-.01-.424c.643-.46 1.2-1.036 1.638-1.693z" fill="#010002" fill-rule="evenodd"/></svg>